<?xml version="1.0" encoding="utf-8"?>
<!-- Generator: Adobe Illustrator 26.0.1, SVG Export Plug-In . SVG Version: 6.00 Build 0)  -->
<svg version="1.1" id="Capa_1" xmlns="http://www.w3.org/2000/svg" xmlns:xlink="http://www.w3.org/1999/xlink" x="0px" y="0px"
	 viewBox="0 0 496.38 221.93" style="enable-background:new 0 0 496.38 221.93;" xml:space="preserve">
<style type="text/css">
	.st0{fill:#020203;}
	.st1{fill-rule:evenodd;clip-rule:evenodd;fill:#020203;}
	.st2{fill:none;}
</style>
<g>
	<g>
		<g>
			<g>
				<path class="st0" d="M308.3,130.37h12.54c2.1,0,4.08,0.32,5.93,0.97c1.86,0.64,3.44,1.63,4.74,2.94c1.3,1.32,2.27,2.97,2.9,4.97
					c0.63,1.99,0.75,4.34,0.36,7.03c-0.39,2.73-1.24,5.09-2.56,7.08c-1.32,1.99-2.88,3.64-4.68,4.94c-1.8,1.3-3.74,2.28-5.82,2.92
					c-2.08,0.64-4.08,0.97-6,0.97h-11.87L308.3,130.37z M314.46,157.07c1.77,0,3.46-0.2,5.08-0.61c1.62-0.4,3.07-1.03,4.36-1.89
					c1.29-0.85,2.37-1.96,3.24-3.33c0.87-1.36,1.44-3.02,1.71-4.97c0.27-1.92,0.2-3.57-0.2-4.94c-0.4-1.38-1.08-2.49-2.02-3.35
					c-0.94-0.85-2.11-1.48-3.51-1.89c-1.39-0.4-2.96-0.61-4.7-0.61h-5.17l-3.01,21.58H314.46z"/>
				<path class="st0" d="M340.58,140.62h5.39l-3.01,21.58h-5.39L340.58,140.62z M340.85,133.29c0.12-0.87,0.55-1.63,1.28-2.27
					c0.73-0.64,1.6-0.97,2.58-0.97c0.99,0,1.78,0.31,2.38,0.92c0.6,0.61,0.82,1.39,0.67,2.31c-0.15,0.93-0.6,1.7-1.35,2.31
					c-0.75,0.61-1.62,0.92-2.61,0.92c-0.99,0-1.76-0.32-2.31-0.97C340.94,134.92,340.73,134.16,340.85,133.29z"/>
				<path class="st0" d="M374.38,140.62l-2.74,19.64c-0.27,1.95-0.76,3.71-1.46,5.28c-0.7,1.57-1.63,2.91-2.79,4
					c-1.15,1.09-2.54,1.94-4.16,2.54c-1.62,0.6-3.48,0.9-5.57,0.9c-2.01,0-3.87-0.25-5.6-0.76c-1.72-0.51-3.26-1.44-4.61-2.79
					l3.87-4.41c0.93,0.99,1.94,1.75,3.03,2.29c1.09,0.54,2.41,0.81,3.93,0.81c1.29,0,2.4-0.18,3.33-0.54
					c0.93-0.36,1.7-0.85,2.31-1.48c0.61-0.63,1.1-1.39,1.46-2.27c0.36-0.88,0.61-1.87,0.76-2.94l0.18-1.57h-0.09
					c-0.93,1.05-2.07,1.84-3.42,2.36c-1.35,0.52-2.7,0.79-4.05,0.79c-1.62,0-3.05-0.29-4.29-0.88c-1.24-0.58-2.26-1.37-3.06-2.36
					c-0.79-0.99-1.36-2.16-1.69-3.51c-0.33-1.35-0.39-2.79-0.18-4.32c0.21-1.59,0.66-3.07,1.35-4.45c0.69-1.38,1.57-2.58,2.63-3.6
					c1.06-1.02,2.29-1.82,3.69-2.4c1.39-0.58,2.93-0.88,4.61-0.88c1.53,0,2.91,0.3,4.14,0.9c1.23,0.6,2.14,1.56,2.74,2.88h0.09
					l0.45-3.24H374.38z M362.24,144.93c-0.96,0-1.85,0.16-2.67,0.47c-0.82,0.31-1.55,0.75-2.18,1.3c-0.63,0.55-1.16,1.23-1.6,2.02
					c-0.43,0.79-0.71,1.67-0.83,2.63c-0.12,0.87-0.07,1.68,0.16,2.43c0.22,0.75,0.58,1.41,1.06,1.98c0.48,0.57,1.09,1.02,1.82,1.35
					c0.73,0.33,1.55,0.49,2.45,0.49c0.99,0,1.9-0.16,2.74-0.49c0.84-0.33,1.57-0.77,2.2-1.33c0.63-0.55,1.15-1.22,1.55-2
					c0.4-0.78,0.68-1.62,0.83-2.52c0.24-1.89-0.13-3.42-1.1-4.58C365.7,145.52,364.22,144.93,362.24,144.93z"/>
				<path class="st0" d="M380.58,140.62h5.39l-3.01,21.58h-5.39L380.58,140.62z M380.85,133.29c0.12-0.87,0.55-1.63,1.28-2.27
					c0.73-0.64,1.6-0.97,2.58-0.97c0.99,0,1.78,0.31,2.38,0.92c0.6,0.61,0.82,1.39,0.67,2.31c-0.15,0.93-0.6,1.7-1.35,2.31
					c-0.75,0.61-1.62,0.92-2.61,0.92c-0.99,0-1.76-0.32-2.31-0.97C380.95,134.92,380.73,134.16,380.85,133.29z"/>
				<path class="st0" d="M389.03,145.2l0.63-4.58h4.45l0.85-6.25h5.39l-0.85,6.25h5.93l-0.63,4.58h-5.93l-1.35,9.44
					c-0.15,1.08-0.07,1.93,0.25,2.56c0.31,0.63,1.07,0.94,2.27,0.94c0.48,0,1.01-0.05,1.6-0.16c0.58-0.1,1.06-0.28,1.42-0.52
					l-0.63,4.54c-0.6,0.27-1.32,0.46-2.16,0.56c-0.84,0.1-1.57,0.16-2.2,0.16c-1.44,0-2.59-0.16-3.46-0.47
					c-0.87-0.31-1.52-0.79-1.96-1.44c-0.43-0.64-0.68-1.45-0.74-2.4c-0.06-0.96,0-2.07,0.18-3.33l1.39-9.89H389.03z"/>
				<path class="st0" d="M420.54,159.23h-0.14c-0.96,1.23-2.08,2.12-3.35,2.67c-1.27,0.55-2.63,0.83-4.07,0.83
					c-0.99,0-1.94-0.13-2.85-0.4c-0.91-0.27-1.7-0.67-2.36-1.21c-0.66-0.54-1.15-1.21-1.48-2.02c-0.33-0.81-0.42-1.75-0.27-2.83
					c0.24-1.74,0.88-3.11,1.93-4.11c1.05-1,2.29-1.76,3.73-2.27c1.44-0.51,2.96-0.82,4.56-0.94c1.6-0.12,3.08-0.18,4.43-0.18h1.35
					l0.04-0.58c0.21-1.35-0.11-2.36-0.94-3.03c-0.84-0.67-1.98-1.01-3.42-1.01c-1.14,0-2.23,0.2-3.28,0.61
					c-1.05,0.4-1.98,0.95-2.79,1.64l-2.43-2.83c1.35-1.23,2.87-2.11,4.56-2.65c1.69-0.54,3.39-0.81,5.1-0.81
					c1.53,0,2.79,0.17,3.8,0.52c1,0.34,1.81,0.79,2.43,1.33c0.61,0.54,1.06,1.16,1.33,1.87c0.27,0.7,0.43,1.42,0.49,2.14
					c0.06,0.72,0.05,1.42-0.02,2.09c-0.07,0.67-0.14,1.27-0.2,1.78l-1.71,12.41h-4.85L420.54,159.23z M421.17,152.53h-1.12
					c-0.75,0-1.6,0.03-2.54,0.09c-0.94,0.06-1.84,0.2-2.7,0.43c-0.85,0.22-1.6,0.55-2.23,0.99c-0.63,0.43-1,1.04-1.12,1.82
					c-0.06,0.51,0,0.94,0.18,1.28c0.18,0.34,0.43,0.64,0.76,0.88c0.33,0.24,0.7,0.41,1.12,0.52c0.42,0.11,0.85,0.16,1.3,0.16
					c1.86,0,3.3-0.44,4.31-1.33c1.02-0.88,1.63-2.09,1.84-3.62L421.17,152.53z"/>
				<path class="st0" d="M435.65,128.21h5.39l-4.76,33.98h-5.39L435.65,128.21z"/>
			</g>
			<g id="_x32_-Logos_x2F_1-Corporate_x2F_3-AVV-Digital_x2F_5-Normal_00000085222051689173839720000016213920235783757720_">
				<g id="av-villas-logo_00000007394381972405436130000011054889737035962510_" transform="translate(31.000000, 6.000000)">
					<g id="Group_00000105428206013228309160000004129238987679916458_">
						<polygon id="Shape_00000148623805723975060760000017830012236896583296_" class="st1" points="226.29,62.19 212.77,62.19 
							194.85,95.09 194.85,95.09 189.74,62.19 176.58,62.19 184.62,110.08 198.88,110.08 						"/>
						<polygon id="Shape_00000059302882090185290240000008932912420884488888_" class="st1" points="299.04,110.08 311.11,110.08 
							320.98,60.36 308.91,60.36 						"/>
						<path id="Shape_00000005246480515739340940000008234154299643999933_" class="st1" d="M378.74,107.52
							c3.66,1.46,8.77,3.66,16.09,2.92c12.43-1.1,18.64-4.75,19.74-13.53c1.1-11.7-17.91-7.68-18.28-13.16
							c0-2.56,4.02-3.66,6.95-3.66c4.39,0,8.77,2.19,12.43,4.39l1.83-9.5c-4.39-1.46-11.33-2.19-14.62-2.19
							c-9.14,0-19.38,5.12-19.38,13.53c0,12.06,18.28,8.04,18.28,13.16c0,2.92-4.39,3.66-6.58,3.66c-3.66,0-9.5-1.1-14.26-5.48
							L378.74,107.52z"/>
						<polygon id="Shape_00000108293610934168073910000004520183336714229905_" class="st1" points="284.42,62.19 271.26,62.19 
							253.35,95.09 252.98,95.09 247.86,62.19 234.7,62.19 243.11,110.08 257,110.08 						"/>
						<polygon id="Shape_00000009569132896008835040000009897150207392031905_" class="st1" points="319.15,110.08 331.58,110.08 
							341.45,60.36 329.02,60.36 						"/>
						<path id="Shape_00000183244013712806011630000014080114506879796394_" class="st0" d="M360.82,110.08h12.79
							c1.1-10.6,4.02-19.38,4.39-24.86c0.73-8.04-4.39-12.06-16.09-12.06c-5.85,0-10.24,0.73-15.72,1.46l-1.1,8.77
							c4.39-2.19,9.5-2.92,13.89-2.92c4.39,0,6.58,1.83,6.58,4.39c0,0.37,0,1.1-0.37,1.46c-1.83-0.37-4.02,0.37-6.58,0.37
							c-11.33,0.37-19.74,5.12-20.47,13.53c-0.37,6.95,2.92,10.24,10.97,10.24c4.75,0,8.04-1.83,12.06-4.39v0.73L360.82,110.08z
							 M350.59,100.57c-0.37-4.02,2.92-6.95,9.5-6.95c0.73,0,2.19-0.37,3.66-0.37c-0.37,4.02-1.1,7.68-1.1,7.68
							c-2.19,1.46-4.39,2.19-6.95,2.56C353.51,103.5,350.95,102.77,350.59,100.57z"/>
						<path id="Shape_00000058590557131066538180000012065312997653027234_" class="st0" d="M126.86,110.08h12.79l5.48-10.24h16.82
							l1.1,10.24h13.16l-8.04-47.89h-13.89L126.86,110.08z M160.49,91.43h-10.97l8.77-16.09L160.49,91.43z"/>
						<path id="Shape_00000109714983821531009900000014952953767343510448_" class="st0" d="M278.57,110.08h12.06l6.95-36.19h-12.06
							L278.57,110.08z M286.61,68.77h12.79l1.83-8.77h-12.79L286.61,68.77z"/>
					</g>
				</g>
				<path class="st1" d="M143.24,56.85c0,0,8.77-9.14,21.57-14.62c0,0-19.38,3.66-36.92,27.05c-3.29,4.39-16.82,27.05-20.47,46.06
					c0,0,2.92-34.36-40.21-41.31c0,0,28.15-4.02,40.21,14.26c0,0,9.03-24.55,27.81-36.34c-13.89-6.41-34.54-5.62-53.03,4.53
					c-28.51,15.35-40.21,39.85-31.44,58.13s39.85,21.2,65.44,8.04c29.25-14.99,41.31-40.21,32.17-58.49
					C146.89,61.24,145.43,59.05,143.24,56.85z M86.57,116.81c-2.92-0.37-19.01-1.46-24.86-12.79c-1.46-2.92-1.83-11.33,10.24-13.53
					c6.95-0.73,19.01,0,25.22,4.75c0,0-25.96-4.39-25.96,5.85c0,4.39,4.39,9.87,18.28,11.7c2.56,0.37,10.97,1.46,16.45-2.19
					C105.95,110.59,102.66,117.9,86.57,116.81z"/>
			</g>
		</g>
	</g>
	<g>
		<path id="Shape_00000038380063941120729560000001533466270538030224_" class="st2" d="M148.84,0h-12.79l-5.48,10.24h-16.82
			L112.65,0H99.49l8.04,47.89h13.89L148.84,0z M115.21,18.64h10.97l-8.77,16.09L115.21,18.64z"/>
		<path id="Shape_00000039128965127090330760000002008243993460667325_" class="st2" d="M0,64.67v12.79l10.24,5.48v16.82L0,100.86
			v13.16l47.89-8.04V92.09L0,64.67z M18.64,98.3V87.34l16.09,8.77L18.64,98.3z"/>
		<path id="Shape_00000093163066051510838730000013152388281372991915_" class="st2" d="M496.38,114.02v-12.79l-10.24-5.48V78.93
			l10.24-1.1V64.67l-47.89,8.04V86.6L496.38,114.02z M477.73,80.39v10.97l-16.09-8.77L477.73,80.39z"/>
		<path id="Shape_00000108274938257701667100000005998381549658283189_" class="st2" d="M319.07,220.87h12.79l5.48-10.24h16.82
			l1.1,10.24h13.16l-8.04-47.89h-13.89L319.07,220.87z M352.71,202.23h-10.97l8.77-16.09L352.71,202.23z"/>
	</g>
</g>
</svg>
